<?xml version="1.0" encoding="UTF-8"?>
<svg id="_레이어_1" data-name="레이어 1" xmlns="http://www.w3.org/2000/svg" viewBox="0 0 43.1 10.77">
  <path d="M5.12,10.75c-5.52.33-5.54-4.32,0-3.99,5.55-.33,5.54,4.32,0,3.99ZM5.12,8.28c-2.04-.15-2.04,1.05,0,.91,2.05.15,2.05-1.05,0-.91ZM4.93,6.3c-2.07-.27-4.58.63-4.93-.9,0-.33.09-.77.91-.83.57-.14,1.92.11,2.83-.2.07-.5.56-.8,1.26-.8s1.16.29,1.24.81c1.07.31,2.58.05,3.1.2.79.06.9.48.9.83-.28,1.54-3.16.63-5.3.9ZM1.79,3.86C-1.38,2.88,4.46.6,5.5.1c1.06-.42,2.05.59,1.18,1.5.5.27,1.39.25,1.97.56,1.17.36.76,1.93-.57,1.59-5.14-1.3-1.76-1.12-6.28.11Z" style="fill: #040000;"/>
  <path d="M16.07,10.75c-5.52.33-5.54-4.32,0-3.99,5.55-.33,5.54,4.32,0,3.99ZM16.07,8.28c-2.04-.15-2.04,1.05,0,.91,2.05.15,2.05-1.05,0-.91ZM15.89,6.3c-1.77,0-3.24-.03-4.03-.1-.81-.06-.91-.49-.91-.81.12-1.37,2.22-.73,3.61-.92.22-1.01,2.42-1.35,2.63-.11,1.47.54,3.83-.54,3.99,1.03-.28,1.54-3.16.63-5.3.9ZM12.75,3.86c-3.18-.98,2.67-3.26,3.7-3.76,1.06-.42,2.05.59,1.18,1.5.5.27,1.39.25,1.97.56,1.17.35.76,1.93-.57,1.59-5.14-1.3-1.76-1.12-6.28.11Z" style="fill: #040000;"/>
  <path d="M27.58,10.62c-1.71-.23-4.09.57-4.8-.99-.23-1.11,0-2.31,1.37-2.16,1.18,0,1.23.48,1.25.63.08.23-.12.6.14.67,1.3-.11,3.52-.16,4.85-.06.92.08,1.02.64,1.02.87-.14,1.45-2.24.87-3.84,1.03ZM27.39,8.19c-.45.06-1.32-.28-1.22-1.1-1.09-.33-2.68-.04-3.36-.21-.61-.05-.91-.33-.91-.85.43-1.66,2.69-.66,4.94-.96,2.21.27,5.05-.67,5.3.96,0,.53-.29.81-.9.85-.36.13-1.75-.13-2.64.2.07.78-.56,1.16-1.22,1.11ZM27.36,4.47c-2.8.02-5.1.33-4.36-3.07.57-1.79,4.47-.92,6.11-1.06,2.4.05,2.26,1.42,1.53,2.6.2.22.63.3.58.76.03.96-2.69.7-3.86.77ZM25.53,1.89c-.2.03-.19.91,0,.94.78-.1,2.24.03,3-.04,0-.23.15-.79-.09-.9-.77.08-2.15.08-2.91,0Z" style="fill: #040000;"/>
  <path d="M37.98,10.73c-1.68,0-1.3-1.9-1.33-3.1-1.43-.36-3.54.52-3.79-1.14.48-1.68,3.26-.69,5.13-.99,1.89.3,4.67-.7,5.11.99.02,1.52-2.66.86-3.8,1.13-.02,1.24.43,3.12-1.32,3.11ZM40.63,4.99c-1.43.05-1.26-1.27-1.29-2.21-1.24-.02-3.21.14-4.46-.03-1.41-.08-1.39-1.91,0-2.02,1.74.07,6.23-.99,7.02,1.01.02,1.01.52,3.33-1.28,3.25Z" style="fill: #040000;"/>
</svg>